<mxfile host="app.diagrams.net" agent="Mozilla/5.0 (Macintosh; Intel Mac OS X 10_15_7) AppleWebKit/537.36 (KHTML, like Gecko) Chrome/128.0.0.0 Safari/537.36" version="24.7.10">
  <diagram name="Page-1" id="Q6pKjs-gX08TMuT0FkWh">
    <mxGraphModel dx="1466" dy="877" grid="1" gridSize="10" guides="1" tooltips="1" connect="1" arrows="1" fold="1" page="1" pageScale="1" pageWidth="1169" pageHeight="827" math="0" shadow="0">
      <root>
        <mxCell id="0" />
        <mxCell id="1" parent="0" />
        <mxCell id="OQqi4LB0kqFBsAC29UD_-125" value="Data Intelligence Agent: External Interfaces: DataCollectionAPI, Internal Interfaces: FeatureRequestAPI" style="whiteSpace=wrap;strokeWidth=2;" vertex="1" parent="1">
          <mxGeometry x="1987" y="224" width="758" height="34" as="geometry" />
        </mxCell>
        <mxCell id="OQqi4LB0kqFBsAC29UD_-126" value="Feature Enhancement Agent: External Interfaces: None, Internal Interfaces: FeatureAPI, DataFeedbackAPI" style="whiteSpace=wrap;strokeWidth=2;" vertex="1" parent="1">
          <mxGeometry x="2240" y="326" width="779" height="34" as="geometry" />
        </mxCell>
        <mxCell id="OQqi4LB0kqFBsAC29UD_-127" value="Adaptive Classifier Agent: External Interfaces: ClassificationAPI, Internal Interfaces: ModelUpdateAPI, FeatureRequestAPI" style="whiteSpace=wrap;strokeWidth=2;" vertex="1" parent="1">
          <mxGeometry x="1737" y="428" width="887" height="34" as="geometry" />
        </mxCell>
        <mxCell id="OQqi4LB0kqFBsAC29UD_-128" value="Threat Response Agent: External Interfaces: ResponseAPI, Internal Interfaces: FeedbackAPI" style="whiteSpace=wrap;strokeWidth=2;" vertex="1" parent="1">
          <mxGeometry x="1194" y="530" width="669" height="34" as="geometry" />
        </mxCell>
        <mxCell id="OQqi4LB0kqFBsAC29UD_-129" value="System Optimizer Agent: External Interfaces: None, Internal Interfaces: OptimizationAPI, MonitoringAPI" style="whiteSpace=wrap;strokeWidth=2;" vertex="1" parent="1">
          <mxGeometry x="1405" y="632" width="760" height="34" as="geometry" />
        </mxCell>
        <mxCell id="OQqi4LB0kqFBsAC29UD_-130" value="Message Broker: Internal Interface: PubSub, MessageQueue, NotificationAPI" style="whiteSpace=wrap;strokeWidth=2;" vertex="1" parent="1">
          <mxGeometry x="20" y="122" width="558" height="34" as="geometry" />
        </mxCell>
        <mxCell id="OQqi4LB0kqFBsAC29UD_-131" value="External Data Sources: OpenPhish, PhishTank, etc." style="whiteSpace=wrap;strokeWidth=2;" vertex="1" parent="1">
          <mxGeometry x="2245" y="20" width="376" height="34" as="geometry" />
        </mxCell>
        <mxCell id="OQqi4LB0kqFBsAC29UD_-132" value="External Consumers: Security Dashboards, Incident Response Tools" style="whiteSpace=wrap;strokeWidth=2;" vertex="1" parent="1">
          <mxGeometry x="3121" y="326" width="490" height="34" as="geometry" />
        </mxCell>
        <mxCell id="OQqi4LB0kqFBsAC29UD_-133" value="Malicious/Benign Data Feed" style="whiteSpace=wrap;strokeWidth=2;" vertex="1" parent="1">
          <mxGeometry x="628" y="122" width="214" height="34" as="geometry" />
        </mxCell>
        <mxCell id="OQqi4LB0kqFBsAC29UD_-134" value="Knowledge Base: Internal Interface: DataStorageAPI, ModelRepositoryAPI" style="whiteSpace=wrap;strokeWidth=2;" vertex="1" parent="1">
          <mxGeometry x="3377" y="122" width="538" height="34" as="geometry" />
        </mxCell>
        <mxCell id="OQqi4LB0kqFBsAC29UD_-135" value="Provide URLs for Analysis" style="curved=1;startArrow=none;endArrow=block;exitX=1;exitY=0.67;entryX=1;entryY=0.16;rounded=0;" edge="1" parent="1" source="OQqi4LB0kqFBsAC29UD_-131" target="OQqi4LB0kqFBsAC29UD_-125">
          <mxGeometry relative="1" as="geometry">
            <Array as="points">
              <mxPoint x="4055" y="88" />
              <mxPoint x="4055" y="190" />
            </Array>
          </mxGeometry>
        </mxCell>
        <mxCell id="OQqi4LB0kqFBsAC29UD_-136" value="Expose Classification Results" style="curved=1;startArrow=none;endArrow=block;exitX=0.93;exitY=0.99;entryX=0.5;entryY=0;rounded=0;" edge="1" parent="1" source="OQqi4LB0kqFBsAC29UD_-125" target="OQqi4LB0kqFBsAC29UD_-132">
          <mxGeometry relative="1" as="geometry">
            <Array as="points">
              <mxPoint x="3366" y="292" />
            </Array>
          </mxGeometry>
        </mxCell>
        <mxCell id="OQqi4LB0kqFBsAC29UD_-137" value="Update Malicious/Benign Data" style="curved=1;startArrow=none;endArrow=block;exitX=0;exitY=0.66;entryX=0.5;entryY=0;rounded=0;" edge="1" parent="1" source="OQqi4LB0kqFBsAC29UD_-131" target="OQqi4LB0kqFBsAC29UD_-133">
          <mxGeometry relative="1" as="geometry">
            <Array as="points">
              <mxPoint x="735" y="88" />
            </Array>
          </mxGeometry>
        </mxCell>
        <mxCell id="OQqi4LB0kqFBsAC29UD_-138" value="Feed Data Continuously" style="curved=1;startArrow=none;endArrow=block;exitX=0.5;exitY=0.99;entryX=0;entryY=0.14;rounded=0;" edge="1" parent="1" source="OQqi4LB0kqFBsAC29UD_-133" target="OQqi4LB0kqFBsAC29UD_-125">
          <mxGeometry relative="1" as="geometry">
            <Array as="points">
              <mxPoint x="735" y="190" />
            </Array>
          </mxGeometry>
        </mxCell>
        <mxCell id="OQqi4LB0kqFBsAC29UD_-139" value="Send Raw URL Data" style="curved=1;startArrow=none;endArrow=block;exitX=0.85;exitY=0.99;entryX=0.73;entryY=0;rounded=0;" edge="1" parent="1" source="OQqi4LB0kqFBsAC29UD_-125" target="OQqi4LB0kqFBsAC29UD_-126">
          <mxGeometry relative="1" as="geometry">
            <Array as="points">
              <mxPoint x="3175" y="292" />
            </Array>
          </mxGeometry>
        </mxCell>
        <mxCell id="OQqi4LB0kqFBsAC29UD_-140" value="Deliver Refined Features" style="curved=1;startArrow=none;endArrow=block;exitX=0.6;exitY=0.99;entryX=0.76;entryY=0;rounded=0;" edge="1" parent="1" source="OQqi4LB0kqFBsAC29UD_-126" target="OQqi4LB0kqFBsAC29UD_-127">
          <mxGeometry relative="1" as="geometry">
            <Array as="points">
              <mxPoint x="2873" y="394" />
            </Array>
          </mxGeometry>
        </mxCell>
        <mxCell id="OQqi4LB0kqFBsAC29UD_-141" value="Send Classification Results" style="curved=1;startArrow=none;endArrow=block;exitX=0.56;exitY=0.99;entryX=0.91;entryY=0;rounded=0;" edge="1" parent="1" source="OQqi4LB0kqFBsAC29UD_-127" target="OQqi4LB0kqFBsAC29UD_-128">
          <mxGeometry relative="1" as="geometry">
            <Array as="points">
              <mxPoint x="2356" y="496" />
            </Array>
          </mxGeometry>
        </mxCell>
        <mxCell id="OQqi4LB0kqFBsAC29UD_-142" value="Provide Feedback on Actions" style="curved=1;startArrow=none;endArrow=block;exitX=0.79;exitY=0;entryX=0.48;entryY=0.99;rounded=0;" edge="1" parent="1" source="OQqi4LB0kqFBsAC29UD_-128" target="OQqi4LB0kqFBsAC29UD_-127">
          <mxGeometry relative="1" as="geometry">
            <Array as="points">
              <mxPoint x="2119" y="496" />
            </Array>
          </mxGeometry>
        </mxCell>
        <mxCell id="OQqi4LB0kqFBsAC29UD_-143" value="Monitor Performance Metrics" style="curved=1;startArrow=none;endArrow=block;exitX=0.22;exitY=0;entryX=0;entryY=0.96;rounded=0;" edge="1" parent="1" source="OQqi4LB0kqFBsAC29UD_-129" target="OQqi4LB0kqFBsAC29UD_-125">
          <mxGeometry relative="1" as="geometry">
            <Array as="points">
              <mxPoint x="1147" y="598" />
              <mxPoint x="1147" y="292" />
            </Array>
          </mxGeometry>
        </mxCell>
        <mxCell id="OQqi4LB0kqFBsAC29UD_-144" value="Suggest Data Collection Adjustments" style="curved=1;startArrow=none;endArrow=block;exitX=0.88;exitY=0;entryX=0.51;entryY=0.99;rounded=0;" edge="1" parent="1" source="OQqi4LB0kqFBsAC29UD_-129" target="OQqi4LB0kqFBsAC29UD_-126">
          <mxGeometry relative="1" as="geometry">
            <Array as="points">
              <mxPoint x="2661" y="598" />
              <mxPoint x="2661" y="394" />
            </Array>
          </mxGeometry>
        </mxCell>
        <mxCell id="OQqi4LB0kqFBsAC29UD_-145" value="Recommend Model Updates" style="curved=1;startArrow=none;endArrow=block;exitX=0.59;exitY=0;entryX=0.43;entryY=0.99;rounded=0;" edge="1" parent="1" source="OQqi4LB0kqFBsAC29UD_-129" target="OQqi4LB0kqFBsAC29UD_-127">
          <mxGeometry relative="1" as="geometry">
            <Array as="points">
              <mxPoint x="1997" y="598" />
              <mxPoint x="1997" y="496" />
            </Array>
          </mxGeometry>
        </mxCell>
        <mxCell id="OQqi4LB0kqFBsAC29UD_-146" value="Optimize Threat Response Actions" style="curved=1;startArrow=none;endArrow=block;exitX=0.34;exitY=0;entryX=0.44;entryY=0.99;rounded=0;" edge="1" parent="1" source="OQqi4LB0kqFBsAC29UD_-129" target="OQqi4LB0kqFBsAC29UD_-128">
          <mxGeometry relative="1" as="geometry">
            <Array as="points">
              <mxPoint x="1403" y="598" />
            </Array>
          </mxGeometry>
        </mxCell>
        <mxCell id="OQqi4LB0kqFBsAC29UD_-147" value="" style="curved=1;startArrow=none;endArrow=none;exitX=0.61;exitY=0.99;entryX=0;entryY=0.19;rounded=0;" edge="1" parent="1" source="OQqi4LB0kqFBsAC29UD_-130" target="OQqi4LB0kqFBsAC29UD_-125">
          <mxGeometry relative="1" as="geometry">
            <Array as="points">
              <mxPoint x="485" y="190" />
            </Array>
          </mxGeometry>
        </mxCell>
        <mxCell id="OQqi4LB0kqFBsAC29UD_-148" value="" style="curved=1;startArrow=none;endArrow=none;exitX=0.6;exitY=0.99;entryX=0;entryY=0.22;rounded=0;" edge="1" parent="1" source="OQqi4LB0kqFBsAC29UD_-130" target="OQqi4LB0kqFBsAC29UD_-126">
          <mxGeometry relative="1" as="geometry">
            <Array as="points">
              <mxPoint x="465" y="190" />
              <mxPoint x="465" y="292" />
            </Array>
          </mxGeometry>
        </mxCell>
        <mxCell id="OQqi4LB0kqFBsAC29UD_-149" value="" style="curved=1;startArrow=none;endArrow=none;exitX=0.51;exitY=0.99;entryX=0;entryY=0.14;rounded=0;" edge="1" parent="1" source="OQqi4LB0kqFBsAC29UD_-130" target="OQqi4LB0kqFBsAC29UD_-127">
          <mxGeometry relative="1" as="geometry">
            <Array as="points">
              <mxPoint x="319" y="190" />
              <mxPoint x="319" y="394" />
            </Array>
          </mxGeometry>
        </mxCell>
        <mxCell id="OQqi4LB0kqFBsAC29UD_-150" value="" style="curved=1;startArrow=none;endArrow=none;exitX=0.5;exitY=0.99;entryX=0;entryY=0.08;rounded=0;" edge="1" parent="1" source="OQqi4LB0kqFBsAC29UD_-130" target="OQqi4LB0kqFBsAC29UD_-128">
          <mxGeometry relative="1" as="geometry">
            <Array as="points">
              <mxPoint x="299" y="496" />
            </Array>
          </mxGeometry>
        </mxCell>
        <mxCell id="OQqi4LB0kqFBsAC29UD_-151" value="" style="curved=1;startArrow=none;endArrow=none;exitX=0.49;exitY=0.99;entryX=0;entryY=0.11;rounded=0;" edge="1" parent="1" source="OQqi4LB0kqFBsAC29UD_-130" target="OQqi4LB0kqFBsAC29UD_-129">
          <mxGeometry relative="1" as="geometry">
            <Array as="points">
              <mxPoint x="279" y="190" />
              <mxPoint x="279" y="598" />
            </Array>
          </mxGeometry>
        </mxCell>
        <mxCell id="OQqi4LB0kqFBsAC29UD_-152" value="" style="curved=1;startArrow=none;endArrow=none;exitX=0.63;exitY=0.99;entryX=1;entryY=0.11;rounded=0;" edge="1" parent="1" source="OQqi4LB0kqFBsAC29UD_-134" target="OQqi4LB0kqFBsAC29UD_-125">
          <mxGeometry relative="1" as="geometry">
            <Array as="points">
              <mxPoint x="3853" y="190" />
            </Array>
          </mxGeometry>
        </mxCell>
        <mxCell id="OQqi4LB0kqFBsAC29UD_-153" value="" style="curved=1;startArrow=none;endArrow=none;exitX=0.61;exitY=0.99;entryX=1;entryY=0.01;rounded=0;" edge="1" parent="1" source="OQqi4LB0kqFBsAC29UD_-134" target="OQqi4LB0kqFBsAC29UD_-126">
          <mxGeometry relative="1" as="geometry">
            <Array as="points">
              <mxPoint x="3833" y="190" />
              <mxPoint x="3833" y="292" />
            </Array>
          </mxGeometry>
        </mxCell>
        <mxCell id="OQqi4LB0kqFBsAC29UD_-154" value="" style="curved=1;startArrow=none;endArrow=none;exitX=0.5;exitY=0.99;entryX=1;entryY=0.04;rounded=0;" edge="1" parent="1" source="OQqi4LB0kqFBsAC29UD_-134" target="OQqi4LB0kqFBsAC29UD_-127">
          <mxGeometry relative="1" as="geometry">
            <Array as="points">
              <mxPoint x="3646" y="394" />
            </Array>
          </mxGeometry>
        </mxCell>
        <mxCell id="OQqi4LB0kqFBsAC29UD_-155" value="" style="curved=1;startArrow=none;endArrow=none;exitX=0;exitY=0.64;entryX=0.18;entryY=0;rounded=0;" edge="1" parent="1" source="OQqi4LB0kqFBsAC29UD_-134" target="OQqi4LB0kqFBsAC29UD_-128">
          <mxGeometry relative="1" as="geometry">
            <Array as="points">
              <mxPoint x="879" y="190" />
              <mxPoint x="879" y="496" />
            </Array>
          </mxGeometry>
        </mxCell>
        <mxCell id="OQqi4LB0kqFBsAC29UD_-156" value="" style="curved=1;startArrow=none;endArrow=none;exitX=0;exitY=0.64;entryX=0.1;entryY=0;rounded=0;" edge="1" parent="1" source="OQqi4LB0kqFBsAC29UD_-134" target="OQqi4LB0kqFBsAC29UD_-129">
          <mxGeometry relative="1" as="geometry">
            <Array as="points">
              <mxPoint x="859" y="190" />
              <mxPoint x="859" y="598" />
            </Array>
          </mxGeometry>
        </mxCell>
        <mxCell id="OQqi4LB0kqFBsAC29UD_-157" value="Request Specific Features for Refinement" style="curved=1;startArrow=none;endArrow=block;exitX=0.5;exitY=0;entryX=0.31;entryY=0.99;rounded=0;" edge="1" parent="1" source="OQqi4LB0kqFBsAC29UD_-127" target="OQqi4LB0kqFBsAC29UD_-126">
          <mxGeometry relative="1" as="geometry">
            <Array as="points">
              <mxPoint x="2180" y="394" />
            </Array>
          </mxGeometry>
        </mxCell>
        <mxCell id="OQqi4LB0kqFBsAC29UD_-158" value="Prioritize Data Collection" style="curved=1;startArrow=none;endArrow=block;exitX=0.5;exitY=0;entryX=0.14;entryY=0.99;rounded=0;" edge="1" parent="1" source="OQqi4LB0kqFBsAC29UD_-128" target="OQqi4LB0kqFBsAC29UD_-125">
          <mxGeometry relative="1" as="geometry">
            <Array as="points">
              <mxPoint x="1529" y="292" />
            </Array>
          </mxGeometry>
        </mxCell>
        <mxCell id="OQqi4LB0kqFBsAC29UD_-159" value="Feedback on Feature Relevance" style="curved=1;startArrow=none;endArrow=block;exitX=0;exitY=0.13;entryX=0;entryY=0.91;rounded=0;" edge="1" parent="1" source="OQqi4LB0kqFBsAC29UD_-126" target="OQqi4LB0kqFBsAC29UD_-125">
          <mxGeometry relative="1" as="geometry">
            <Array as="points">
              <mxPoint x="1013" y="292" />
            </Array>
          </mxGeometry>
        </mxCell>
        <mxCell id="OQqi4LB0kqFBsAC29UD_-160" value="Notify of New Data Sources" style="curved=1;startArrow=none;endArrow=block;exitX=0.81;exitY=0.99;entryX=1;entryY=0.05;rounded=0;" edge="1" parent="1" source="OQqi4LB0kqFBsAC29UD_-125" target="OQqi4LB0kqFBsAC29UD_-129">
          <mxGeometry relative="1" as="geometry">
            <Array as="points">
              <mxPoint x="3085" y="292" />
              <mxPoint x="3085" y="598" />
            </Array>
          </mxGeometry>
        </mxCell>
        <mxCell id="OQqi4LB0kqFBsAC29UD_-161" value="Report Model Performance" style="curved=1;startArrow=none;endArrow=block;exitX=0.52;exitY=0.99;entryX=0.7;entryY=0;rounded=0;" edge="1" parent="1" source="OQqi4LB0kqFBsAC29UD_-127" target="OQqi4LB0kqFBsAC29UD_-129">
          <mxGeometry relative="1" as="geometry">
            <Array as="points">
              <mxPoint x="2241" y="496" />
              <mxPoint x="2241" y="598" />
            </Array>
          </mxGeometry>
        </mxCell>
        <mxCell id="OQqi4LB0kqFBsAC29UD_-162" value="Report Effectiveness of Actions" style="curved=1;startArrow=none;endArrow=block;exitX=0.58;exitY=0.99;entryX=0.46;entryY=0;rounded=0;" edge="1" parent="1" source="OQqi4LB0kqFBsAC29UD_-128" target="OQqi4LB0kqFBsAC29UD_-129">
          <mxGeometry relative="1" as="geometry">
            <Array as="points">
              <mxPoint x="1698" y="598" />
            </Array>
          </mxGeometry>
        </mxCell>
      </root>
    </mxGraphModel>
  </diagram>
</mxfile>
